<?xml version="1.0" encoding="UTF-8"?>
<svg id="Layer_2" data-name="Layer 2" xmlns="http://www.w3.org/2000/svg" viewBox="0 0 170.62 189.52">
  <defs>
    <style>
      .cls-1 {
        fill: #fff;
      }
    </style>
  </defs>
  <g id="OBJECTS">
    <g>
      <path class="cls-1" d="M125.54,79.19c0,9.67,7.87,17.54,17.54,17.54,2.06,0,4.03-.38,5.87-1.03v-33c-1.84-.66-3.81-1.03-5.87-1.03-9.67,0-17.54,7.87-17.54,17.54Z"/>
      <path class="cls-1" d="M156.3,55.03c-3.31-1.81-7.34.67-7.34,4.44,0,1.84,1.02,3.51,2.63,4.4.29.16.57.33.85.51.04.03.08.05.12.07.35.23.69.46,1.02.71.1.08.2.16.3.24.23.18.45.36.67.55.12.1.23.21.35.31.19.18.38.35.57.54.12.12.23.23.34.35.18.19.35.37.51.57.11.12.21.25.32.37.17.2.33.41.49.62.09.12.19.24.27.37.18.25.35.51.51.77.06.09.12.18.18.27.22.36.42.72.61,1.09.04.08.08.17.12.26.14.29.28.58.41.88.06.14.11.28.17.42.1.25.2.51.28.76.05.16.1.32.15.48.08.25.15.5.22.76.04.16.08.33.12.49.06.26.11.52.16.79.03.16.06.32.08.49.04.29.08.58.11.88.01.14.03.28.04.42.03.44.05.88.05,1.33s-.02.89-.05,1.33c-.01.14-.03.28-.04.42-.03.3-.06.59-.11.88-.02.16-.06.32-.08.49-.05.27-.1.53-.16.79-.04.17-.08.33-.12.49-.07.25-.14.51-.22.76-.05.16-.1.32-.15.48-.09.26-.18.51-.28.76-.06.14-.11.28-.17.42-.13.3-.26.59-.41.88-.04.09-.08.17-.12.26-.19.37-.39.74-.61,1.09-.06.09-.12.18-.18.27-.16.26-.33.52-.51.77-.09.13-.18.25-.28.37-.16.21-.32.42-.48.62-.1.13-.21.25-.32.38-.17.19-.34.38-.51.57-.11.12-.23.24-.34.36-.18.18-.37.36-.56.54-.12.11-.23.21-.35.32-.22.19-.44.37-.67.55-.1.08-.2.16-.3.24-.33.25-.67.49-1.02.71-.04.03-.08.05-.12.07-.28.18-.56.35-.85.51-1.61.9-2.63,2.56-2.63,4.4h0c0,3.77,4.04,6.25,7.34,4.44,8.53-4.68,14.32-13.74,14.32-24.16s-5.79-19.48-14.32-24.16Z"/>
      <path class="cls-1" d="M115.65,76.79c1.01-11.97,9.92-22.05,21.68-24.53,4.05-.86,7.97-.77,11.63.03v-19.43h0s15.19-8.7,17.64-27.71H52.22c-13.75,0-25.15,10.01-27.33,23.14l-.36,4.57h85.24v41.08h-12.77c-2.45-12.7-13.62-22.28-27.03-22.28s-24.58,9.59-27.03,22.28h-18.41v-41.08h-6.82C7.92,32.85,0,40.77,0,50.54v76.69c0,22.23,18.02,40.25,40.24,40.25h0v-16.05h.01c-7.74-5.14-13.32-13.26-15.12-22.72-10.86-1.44-19.23-10.73-19.23-21.98s8.05-20.18,18.6-21.89v-.02h18.48c2.6,12.51,13.68,21.91,26.96,21.91s24.36-9.4,26.96-21.91h15.42l8.39,23.91c1.03,2.94-1.07,6.05-4.19,6.18l-6.79.28v42.12h18.6c11.38,0,20.6-9.22,20.6-20.6v-30.61c-1.89.41-3.86.63-5.87.63-16,0-28.81-13.64-27.43-29.93ZM69.96,96.72c-9.67,0-17.54-7.87-17.54-17.54s7.87-17.54,17.54-17.54,17.54,7.87,17.54,17.54-7.87,17.54-17.54,17.54Z"/>
      <path class="cls-1" d="M24.96,0s-22.35,12.18-.46,32.83c0-1.55.14-3.07.38-4.55l.08-1V0Z"/>
      <polygon class="cls-1" points="99.9 183.17 86.62 189.47 40.25 167.47 40.25 189.52 86.51 189.52 86.73 189.52 109.76 189.52 133 189.52 133 167.47 109.76 178.5 109.76 157.3 59.71 157.3 99.9 183.17"/>
    </g>
  </g>
</svg>